<svg width="447" height="73" viewBox="0 0 447 73" xmlns="http://www.w3.org/2000/svg"><title>Vector</title><g fill="#000" fill-rule="evenodd"><path d="M32.23 72.74H20.682V11.845H0V0h52.93v11.846h-20.7zM84.06 72.74h11.482V0H84.06zM177.32 0h11.261v72.74h-9.591l-35.977-51.757V72.74h-11.277V0h10.632l34.952 50.294zM219.56 0h13.87l22.274 32.733 10.168-11.64V0h11.463v72.74h-11.463V36.168l-31.02 36.57h-14.083l27.106-31.272zM358.247 11.441h-36.891v18.901h32.688v11.434h-32.688v19.53h37.357v11.433h-48.82V0h48.354zM419.607 11.63l-16.673.073.066 24.42 16.77-.064c8.209-.035 13.41-4.838 13.394-12.313-.025-7.998-5.059-12.142-13.557-12.116zm13.887 61.062l-16.107-25.29-14.363.048.078 25.362-11.446.024-.213-72.74L420.523 0c14.99-.073 24.243 8.735 24.266 22.974.05 12.058-6.354 19.357-15.488 22.2L447 72.64l-13.506.052z"/></g></svg>